<svg width="727" height="572" viewBox="0 0 727 572" fill="none" xmlns="http://www.w3.org/2000/svg">
<path d="M250.501 413.341C264.401 423.341 276.101 437.641 278.501 453.341C280.901 469.041 274.101 486.041 264.101 499.441C254.201 512.841 241.101 522.641 224.901 532.241C208.701 541.841 189.401 551.241 175.201 546.241C161.001 541.141 151.901 521.641 144.401 503.641C136.901 485.741 130.901 469.241 131.001 451.241C131.001 433.141 137.101 413.541 150.301 403.441C163.501 393.341 183.801 392.741 202.101 395.241C220.401 397.741 236.501 403.341 250.501 413.341Z" fill="#BAE6FF"/>
<path d="M142.646 209.686C154.846 229.186 156.246 256.486 144.746 274.586C133.246 292.686 108.846 301.486 85.7464 300.686C62.6464 299.886 40.8464 289.686 31.5464 272.786C22.1464 255.986 25.3464 232.586 36.2464 213.986C47.1464 195.286 65.7464 181.386 86.6464 180.086C107.446 178.886 130.446 190.286 142.646 209.686Z" fill="#BAE6FF"/>
<path d="M450.139 158.08C467.004 182.356 476.146 208.302 474.885 239.255C473.624 270.207 461.645 306.167 440.524 311.326C419.245 316.485 388.825 290.843 352.572 274.759C316.32 258.828 274.393 252.303 258.946 228.178C243.657 204.205 254.848 162.631 280.382 136.534C305.759 110.437 345.322 99.6638 377.318 105.581C409.158 111.347 433.431 133.803 450.139 158.08Z" fill="#0F62FE"/>
<path d="M641.614 278.138C656.814 285.238 669.114 301.438 671.714 319.038C674.414 336.538 667.414 355.438 656.214 368.938C644.914 382.538 629.414 390.738 614.814 391.938C600.214 393.138 586.514 387.238 571.014 383.038C555.514 378.938 538.114 376.338 524.614 365.538C511.114 354.638 501.414 335.538 504.614 318.738C507.714 302.038 523.614 287.738 540.014 280.838C556.414 273.938 573.314 274.538 590.814 273.838C608.314 273.138 626.414 271.038 641.614 278.138Z" fill="#08BDBA"/>
</svg>
