<svg width="2000" height="2000" viewBox="0 0 2000 2000" fill="none" xmlns="http://www.w3.org/2000/svg">
<g clip-path="url(#clip0)">
<rect width="2000" height="2000" fill="#0399CD"/>
<path d="M290.132 1473.68C291.762 1465.7 296.3 1458.6 302.866 1453.77C309.432 1448.94 317.557 1446.72 325.668 1447.54C333.778 1448.35 341.296 1452.16 346.763 1458.2C352.23 1464.25 355.256 1472.11 355.256 1480.26C355.256 1488.42 352.23 1496.28 346.763 1502.32C341.296 1508.37 333.778 1512.17 325.668 1512.99C317.557 1513.81 309.432 1511.59 302.866 1506.76C296.3 1501.93 291.762 1494.83 290.132 1486.84H0V1473.68H290.132ZM1342.76 1789.47C1344.39 1781.49 1348.93 1774.39 1355.5 1769.56C1362.06 1764.73 1370.19 1762.51 1378.3 1763.32C1386.41 1764.14 1393.93 1767.95 1399.39 1773.99C1404.86 1780.04 1407.89 1787.9 1407.89 1796.05C1407.89 1804.2 1404.86 1812.07 1399.39 1818.11C1393.93 1824.16 1386.41 1827.96 1378.3 1828.78C1370.19 1829.6 1362.06 1827.38 1355.5 1822.55C1348.93 1817.72 1344.39 1810.62 1342.76 1802.63H539.474V1789.47H1342.76ZM1723.03 1486.84C1721.4 1494.83 1716.86 1501.93 1710.29 1506.76C1703.73 1511.59 1695.6 1513.81 1687.49 1512.99C1679.38 1512.17 1671.86 1508.37 1666.4 1502.32C1660.93 1496.28 1657.9 1488.42 1657.9 1480.26C1657.9 1472.11 1660.93 1464.25 1666.4 1458.2C1671.86 1452.16 1679.38 1448.35 1687.49 1447.54C1695.6 1446.72 1703.73 1448.94 1710.29 1453.77C1716.86 1458.6 1721.4 1465.7 1723.03 1473.68H2000V1486.84H1723.03ZM1723.03 1592.11C1721.4 1600.09 1716.86 1607.19 1710.29 1612.02C1703.73 1616.85 1695.6 1619.07 1687.49 1618.25C1679.38 1617.44 1671.86 1613.63 1666.4 1607.59C1660.93 1601.54 1657.9 1593.68 1657.9 1585.53C1657.9 1577.37 1660.93 1569.51 1666.4 1563.47C1671.86 1557.42 1679.38 1553.62 1687.49 1552.8C1695.6 1551.98 1703.73 1554.2 1710.29 1559.03C1716.86 1563.86 1721.4 1570.96 1723.03 1578.95H2000V1592.11H1723.03ZM1763.82 842.105C1765.45 834.118 1769.98 827.021 1776.55 822.19C1783.12 817.358 1791.24 815.137 1799.35 815.956C1807.46 816.775 1814.98 820.577 1820.45 826.624C1825.91 832.671 1828.94 840.532 1828.94 848.684C1828.94 856.836 1825.91 864.697 1820.45 870.744C1814.98 876.791 1807.46 880.593 1799.35 881.412C1791.24 882.232 1783.12 880.01 1776.55 875.179C1769.98 870.348 1765.45 863.25 1763.82 855.263H1196.71C1195.08 863.25 1190.54 870.348 1183.98 875.179C1177.41 880.01 1169.28 882.232 1161.17 881.412C1153.06 880.593 1145.55 876.791 1140.08 870.744C1134.61 864.697 1131.59 856.836 1131.59 848.684C1131.59 840.532 1134.61 832.671 1140.08 826.624C1145.55 820.577 1153.06 816.775 1161.17 815.956C1169.28 815.137 1177.41 817.358 1183.98 822.19C1190.54 827.021 1195.08 834.118 1196.71 842.105H1763.82ZM79.6053 526.316C81.2356 518.329 85.7736 511.231 92.3394 506.4C98.9052 501.569 107.031 499.347 115.142 500.167C123.252 500.986 130.77 504.788 136.236 510.835C141.703 516.881 144.73 524.743 144.73 532.895C144.73 541.047 141.703 548.908 136.236 554.955C130.77 561.002 123.252 564.804 115.142 565.623C107.031 566.442 98.9052 564.221 92.3394 559.389C85.7736 554.558 81.2356 547.461 79.6053 539.474H0V526.316H79.6053ZM1301.97 750C1300.34 757.987 1295.81 765.084 1289.24 769.916C1282.67 774.747 1274.55 776.969 1266.44 776.149C1258.33 775.33 1250.81 771.528 1245.34 765.481C1239.88 759.434 1236.85 751.573 1236.85 743.421C1236.85 735.269 1239.88 727.408 1245.34 721.361C1250.81 715.314 1258.33 711.512 1266.44 710.693C1274.55 709.874 1282.67 712.095 1289.24 716.926C1295.81 721.758 1300.34 728.855 1301.97 736.842H1869.08C1870.71 728.855 1875.25 721.758 1881.81 716.926C1888.38 712.095 1896.5 709.874 1904.62 710.693C1912.73 711.512 1920.24 715.314 1925.71 721.361C1931.18 727.408 1934.2 735.269 1934.2 743.421C1934.2 751.573 1931.18 759.434 1925.71 765.481C1920.24 771.528 1912.73 775.33 1904.62 776.149C1896.5 776.969 1888.38 774.747 1881.81 769.916C1875.25 765.084 1870.71 757.987 1869.08 750H1301.97ZM1697.37 79.6053C1705.36 81.2356 1712.45 85.7736 1717.28 92.3394C1722.12 98.9052 1724.34 107.031 1723.52 115.142C1722.7 123.252 1718.9 130.77 1712.85 136.236C1706.8 141.703 1698.94 144.73 1690.79 144.73C1682.64 144.73 1674.78 141.703 1668.73 136.236C1662.68 130.77 1658.88 123.252 1658.06 115.142C1657.24 107.031 1659.46 98.9052 1664.29 92.3394C1669.13 85.7736 1676.22 81.2356 1684.21 79.6053V0H1697.37V79.6053ZM1276.32 1448.03C1284.3 1449.66 1291.4 1454.19 1296.23 1460.76C1301.06 1467.33 1303.28 1475.45 1302.47 1483.56C1301.65 1491.67 1297.84 1499.19 1291.8 1504.66C1285.75 1510.12 1277.89 1513.15 1269.74 1513.15C1261.59 1513.15 1253.72 1510.12 1247.68 1504.66C1241.63 1499.19 1237.83 1491.67 1237.01 1483.56C1236.19 1475.45 1238.41 1467.33 1243.24 1460.76C1248.07 1454.19 1255.17 1449.66 1263.16 1448.03V1091.45C1255.17 1089.82 1248.07 1085.28 1243.24 1078.71C1238.41 1072.15 1236.19 1064.02 1237.01 1055.91C1237.83 1047.8 1241.63 1040.28 1247.68 1034.82C1253.72 1029.35 1261.59 1026.32 1269.74 1026.32C1277.89 1026.32 1285.75 1029.35 1291.8 1034.82C1297.84 1040.28 1301.65 1047.8 1302.47 1055.91C1303.28 1064.02 1301.06 1072.15 1296.23 1078.71C1291.4 1085.28 1284.3 1089.82 1276.32 1091.45V1448.03ZM1592.11 144.079V526.316H2000V539.474H1578.95V144.079C1570.96 142.449 1563.86 137.911 1559.03 131.345C1554.2 124.779 1551.98 116.653 1552.8 108.543C1553.62 100.432 1557.42 92.9146 1563.47 87.4478C1569.51 81.9809 1577.37 78.9541 1585.53 78.9541C1593.68 78.9541 1601.54 81.9809 1607.59 87.4478C1613.63 92.9146 1617.44 100.432 1618.25 108.543C1619.07 116.653 1616.85 124.779 1612.02 131.345C1607.19 137.911 1600.09 142.449 1592.11 144.079ZM1697.37 249.342V421.053H2000V434.211H1684.21V249.342C1676.22 247.712 1669.13 243.174 1664.29 236.608C1659.46 230.042 1657.24 221.916 1658.06 213.806C1658.88 205.695 1662.68 198.178 1668.73 192.711C1674.78 187.244 1682.64 184.217 1690.79 184.217C1698.94 184.217 1706.8 187.244 1712.85 192.711C1718.9 198.178 1722.7 205.695 1723.52 213.806C1724.34 221.916 1722.12 230.042 1717.28 236.608C1712.45 243.174 1705.36 247.712 1697.37 249.342ZM855.263 880.921V1368.42H960.526V1448.03C968.513 1449.66 975.611 1454.19 980.442 1460.76C985.273 1467.33 987.495 1475.45 986.676 1483.56C985.856 1491.67 982.055 1499.19 976.008 1504.66C969.961 1510.12 962.099 1513.15 953.947 1513.15C945.796 1513.15 937.934 1510.12 931.887 1504.66C925.84 1499.19 922.039 1491.67 921.219 1483.56C920.4 1475.45 922.621 1467.33 927.453 1460.76C932.284 1454.19 939.381 1449.66 947.368 1448.03V1381.58H842.105V880.921C834.118 879.291 827.021 874.753 822.19 868.187C817.358 861.621 815.137 853.495 815.956 845.385C816.775 837.274 820.577 829.757 826.624 824.29C832.671 818.823 840.532 815.796 848.684 815.796C856.836 815.796 864.697 818.823 870.744 824.29C876.791 829.757 880.593 837.274 881.412 845.385C882.232 853.495 880.01 861.621 875.179 868.187C870.348 874.753 863.25 879.291 855.263 880.921ZM816.447 736.842C818.078 728.855 822.616 721.758 829.182 716.926C835.747 712.095 843.873 709.874 851.984 710.693C860.094 711.512 867.612 715.314 873.078 721.361C878.545 727.408 881.572 735.269 881.572 743.421C881.572 751.573 878.545 759.434 873.078 765.481C867.612 771.528 860.094 775.33 851.984 776.149C843.873 776.969 835.747 774.747 829.182 769.916C822.616 765.084 818.078 757.987 816.447 750H750V1065.79H565.132C563.501 1073.78 558.963 1080.87 552.397 1085.71C545.832 1090.54 537.706 1092.76 529.595 1091.94C521.485 1091.12 513.967 1087.32 508.5 1081.27C503.034 1075.22 500.007 1067.36 500.007 1059.21C500.007 1051.06 503.034 1043.2 508.5 1037.15C513.967 1031.1 521.485 1027.3 529.595 1026.48C537.706 1025.66 545.832 1027.88 552.397 1032.72C558.963 1037.55 563.501 1044.64 565.132 1052.63H736.842V736.842H816.447ZM775.658 1592.11C774.028 1600.09 769.49 1607.19 762.924 1612.02C756.358 1616.85 748.232 1619.07 740.122 1618.25C732.011 1617.44 724.494 1613.63 719.027 1607.59C713.56 1601.54 710.533 1593.68 710.533 1585.53C710.533 1577.37 713.56 1569.51 719.027 1563.47C724.494 1557.42 732.011 1553.62 740.122 1552.8C748.232 1551.98 756.358 1554.2 762.924 1559.03C769.49 1563.86 774.028 1570.96 775.658 1578.95H1157.89V1091.45C1149.91 1089.82 1142.81 1085.28 1137.98 1078.71C1133.15 1072.15 1130.93 1064.02 1131.75 1055.91C1132.56 1047.8 1136.37 1040.28 1142.41 1034.82C1148.46 1029.35 1156.32 1026.32 1164.47 1026.32C1172.63 1026.32 1180.49 1029.35 1186.53 1034.82C1192.58 1040.28 1196.38 1047.8 1197.2 1055.91C1198.02 1064.02 1195.8 1072.15 1190.97 1078.71C1186.14 1085.28 1179.04 1089.82 1171.05 1091.45V1592.11H775.658ZM670.395 1171.05C668.764 1179.04 664.226 1186.14 657.661 1190.97C651.095 1195.8 642.969 1198.02 634.858 1197.2C626.748 1196.38 619.23 1192.58 613.764 1186.53C608.297 1180.49 605.27 1172.63 605.27 1164.47C605.27 1156.32 608.297 1148.46 613.764 1142.41C619.23 1136.37 626.748 1132.56 634.858 1131.75C642.969 1130.93 651.095 1133.15 657.661 1137.98C664.226 1142.81 668.764 1149.91 670.395 1157.89H750V1473.68H816.447C818.078 1465.7 822.616 1458.6 829.182 1453.77C835.747 1448.94 843.873 1446.72 851.984 1447.54C860.094 1448.35 867.612 1452.16 873.078 1458.2C878.545 1464.25 881.572 1472.11 881.572 1480.26C881.572 1488.42 878.545 1496.28 873.078 1502.32C867.612 1508.37 860.094 1512.17 851.984 1512.99C843.873 1513.81 835.747 1511.59 829.182 1506.76C822.616 1501.93 818.078 1494.83 816.447 1486.84H736.842V1171.05H670.395ZM434.211 1869.08C442.198 1870.71 449.295 1875.25 454.126 1881.81C458.958 1888.38 461.179 1896.5 460.36 1904.62C459.54 1912.73 455.739 1920.24 449.692 1925.71C443.645 1931.18 435.783 1934.2 427.632 1934.2C419.48 1934.2 411.618 1931.18 405.571 1925.71C399.524 1920.24 395.723 1912.73 394.903 1904.62C394.084 1896.5 396.305 1888.38 401.137 1881.81C405.968 1875.25 413.066 1870.71 421.053 1869.08V1802.63H328.947V2000H315.789V1789.47H434.211V1869.08ZM1553.29 1157.89C1554.92 1149.91 1559.46 1142.81 1566.02 1137.98C1572.59 1133.15 1580.72 1130.93 1588.83 1131.75C1596.94 1132.56 1604.45 1136.37 1609.92 1142.41C1615.39 1148.46 1618.41 1156.32 1618.41 1164.47C1618.41 1172.63 1615.39 1180.49 1609.92 1186.53C1604.45 1192.58 1596.94 1196.38 1588.83 1197.2C1580.72 1198.02 1572.59 1195.8 1566.02 1190.97C1559.46 1186.14 1554.92 1179.04 1553.29 1171.05H1486.84V1789.47H1802.63V2000H1789.47V1802.63H1473.68V1157.89H1553.29ZM1723.03 960.526C1721.4 968.513 1716.86 975.611 1710.29 980.442C1703.73 985.273 1695.6 987.495 1687.49 986.676C1679.38 985.856 1671.86 982.055 1666.4 976.008C1660.93 969.961 1657.9 962.099 1657.9 953.947C1657.9 945.796 1660.93 937.934 1666.4 931.887C1671.86 925.84 1679.38 922.039 1687.49 921.219C1695.6 920.4 1703.73 922.621 1710.29 927.453C1716.86 932.284 1721.4 939.381 1723.03 947.368H1802.63V1237.5C1810.62 1239.13 1817.72 1243.67 1822.55 1250.23C1827.38 1256.8 1829.6 1264.93 1828.78 1273.04C1827.96 1281.15 1824.16 1288.66 1818.11 1294.13C1812.07 1299.6 1804.2 1302.62 1796.05 1302.62C1787.9 1302.62 1780.04 1299.6 1773.99 1294.13C1767.95 1288.66 1764.14 1281.15 1763.32 1273.04C1762.51 1264.93 1764.73 1256.8 1769.56 1250.23C1774.39 1243.67 1781.49 1239.13 1789.47 1237.5V960.526H1723.03ZM1301.97 1592.11C1300.34 1600.09 1295.81 1607.19 1289.24 1612.02C1282.67 1616.85 1274.55 1619.07 1266.44 1618.25C1258.33 1617.44 1250.81 1613.63 1245.34 1607.59C1239.88 1601.54 1236.85 1593.68 1236.85 1585.53C1236.85 1577.37 1239.88 1569.51 1245.34 1563.47C1250.81 1557.42 1258.33 1553.62 1266.44 1552.8C1274.55 1551.98 1282.67 1554.2 1289.24 1559.03C1295.81 1563.86 1300.34 1570.96 1301.97 1578.95H1368.42V1052.63H1473.68V960.526H1196.71C1195.08 968.513 1190.54 975.611 1183.98 980.442C1177.41 985.273 1169.28 987.495 1161.17 986.676C1153.06 985.856 1145.55 982.055 1140.08 976.008C1134.61 969.961 1131.59 962.099 1131.59 953.947C1131.59 945.796 1134.61 937.934 1140.08 931.887C1145.55 925.84 1153.06 922.039 1161.17 921.219C1169.28 920.4 1177.41 922.621 1183.98 927.453C1190.54 932.284 1195.08 939.381 1196.71 947.368H1486.84V1065.79H1381.58V1592.11H1301.97ZM1869.08 210.526C1870.71 202.539 1875.25 195.442 1881.81 190.611C1888.38 185.779 1896.5 183.558 1904.62 184.377C1912.73 185.196 1920.24 188.998 1925.71 195.045C1931.18 201.092 1934.2 208.953 1934.2 217.105C1934.2 225.257 1931.18 233.119 1925.71 239.165C1920.24 245.212 1912.73 249.014 1904.62 249.833C1896.5 250.653 1888.38 248.431 1881.81 243.6C1875.25 238.769 1870.71 231.671 1869.08 223.684H1789.47V0H1802.63V210.526H1869.08ZM644.737 670.395V960.526H354.605C352.975 968.513 348.437 975.611 341.871 980.442C335.305 985.273 327.179 987.495 319.069 986.676C310.958 985.856 303.441 982.055 297.974 976.008C292.507 969.961 289.48 962.099 289.48 953.947C289.48 945.796 292.507 937.934 297.974 931.887C303.441 925.84 310.958 922.039 319.069 921.219C327.179 920.4 335.305 922.621 341.871 927.453C348.437 932.284 352.975 939.381 354.605 947.368H631.579V670.395C623.592 668.764 616.495 664.226 611.663 657.661C606.832 651.095 604.61 642.969 605.43 634.858C606.249 626.748 610.051 619.23 616.098 613.764C622.145 608.297 630.006 605.27 638.158 605.27C646.31 605.27 654.171 608.297 660.218 613.764C666.265 619.23 670.067 626.748 670.886 634.858C671.705 642.969 669.484 651.095 664.653 657.661C659.821 664.226 652.724 668.764 644.737 670.395ZM354.605 223.684C352.975 231.671 348.437 238.769 341.871 243.6C335.305 248.431 327.179 250.653 319.069 249.833C310.958 249.014 303.441 245.212 297.974 239.165C292.507 233.119 289.48 225.257 289.48 217.105C289.48 208.953 292.507 201.092 297.974 195.045C303.441 188.998 310.958 185.196 319.069 184.377C327.179 183.558 335.305 185.779 341.871 190.611C348.437 195.442 352.975 202.539 354.605 210.526H526.316V0H539.474V223.684H354.605ZM750 249.342V434.211H539.474V855.263H459.868C458.238 863.25 453.7 870.348 447.134 875.179C440.568 880.01 432.443 882.232 424.332 881.412C416.222 880.593 408.704 876.791 403.237 870.744C397.77 864.697 394.744 856.836 394.744 848.684C394.744 840.532 397.77 832.671 403.237 826.624C408.704 820.577 416.222 816.775 424.332 815.956C432.443 815.137 440.568 817.358 447.134 822.19C453.7 827.021 458.238 834.118 459.868 842.105H526.316V421.053H736.842V249.342C728.855 247.712 721.758 243.174 716.926 236.608C712.095 230.042 709.874 221.916 710.693 213.806C711.512 205.695 715.314 198.178 721.361 192.711C727.408 187.244 735.269 184.217 743.421 184.217C751.573 184.217 759.434 187.244 765.481 192.711C771.528 198.178 775.33 205.695 776.149 213.806C776.969 221.916 774.747 230.042 769.916 236.608C765.084 243.174 757.987 247.712 750 249.342ZM670.395 539.474C668.764 547.461 664.226 554.558 657.661 559.389C651.095 564.221 642.969 566.442 634.858 565.623C626.748 564.804 619.23 561.002 613.764 554.955C608.297 548.908 605.27 541.047 605.27 532.895C605.27 524.743 608.297 516.881 613.764 510.835C619.23 504.788 626.748 500.986 634.858 500.167C642.969 499.347 651.095 501.569 657.661 506.4C664.226 511.231 668.764 518.329 670.395 526.316H842.105V249.342C834.118 247.712 827.021 243.174 822.19 236.608C817.358 230.042 815.137 221.916 815.956 213.806C816.775 205.695 820.577 198.178 826.624 192.711C832.671 187.244 840.532 184.217 848.684 184.217C856.836 184.217 864.697 187.244 870.744 192.711C876.791 198.178 880.593 205.695 881.412 213.806C882.232 221.916 880.01 230.042 875.179 236.608C870.348 243.174 863.25 247.712 855.263 249.342V539.474H670.395ZM775.658 118.421C774.028 126.408 769.49 133.505 762.924 138.337C756.358 143.168 748.232 145.39 740.122 144.57C732.011 143.751 724.494 139.949 719.027 133.902C713.56 127.855 710.533 119.994 710.533 111.842C710.533 103.69 713.56 95.8288 719.027 89.7819C724.494 83.7349 732.011 79.9333 740.122 79.1139C748.232 78.2946 756.358 80.516 762.924 85.3474C769.49 90.1788 774.028 97.276 775.658 105.263H960.526V395.395C968.513 397.025 975.611 401.563 980.442 408.129C985.273 414.695 987.495 422.821 986.676 430.931C985.856 439.042 982.055 446.559 976.008 452.026C969.961 457.493 962.099 460.52 953.947 460.52C945.796 460.52 937.934 457.493 931.887 452.026C925.84 446.559 922.039 439.042 921.219 430.931C920.4 422.821 922.621 414.695 927.453 408.129C932.284 401.563 939.381 397.025 947.368 395.395V118.421H775.658ZM1448.03 1894.74C1449.66 1886.75 1454.19 1879.65 1460.76 1874.82C1467.33 1869.99 1475.45 1867.77 1483.56 1868.59C1491.67 1869.41 1499.19 1873.21 1504.66 1879.26C1510.12 1885.3 1513.15 1893.16 1513.15 1901.32C1513.15 1909.47 1510.12 1917.33 1504.66 1923.38C1499.19 1929.42 1491.67 1933.22 1483.56 1934.04C1475.45 1934.86 1467.33 1932.64 1460.76 1927.81C1454.19 1922.98 1449.66 1915.88 1448.03 1907.89H644.737V2000H631.579V1894.74H1448.03ZM1592.11 986.184V1052.63H1697.37V1276.32H1592.11V1684.21H1907.89V2000H1894.74V1697.37H1578.95V1263.16H1684.21V1065.79H1578.95V986.184C1570.96 984.554 1563.86 980.016 1559.03 973.45C1554.2 966.884 1551.98 958.758 1552.8 950.648C1553.62 942.537 1557.42 935.02 1563.47 929.553C1569.51 924.086 1577.37 921.059 1585.53 921.059C1593.68 921.059 1601.54 924.086 1607.59 929.553C1613.63 935.02 1617.44 942.537 1618.25 950.648C1619.07 958.758 1616.85 966.884 1612.02 973.45C1607.19 980.016 1600.09 984.554 1592.11 986.184ZM354.605 118.421C352.975 126.408 348.437 133.505 341.871 138.337C335.305 143.168 327.179 145.39 319.069 144.57C310.958 143.751 303.441 139.949 297.974 133.902C292.507 127.855 289.48 119.994 289.48 111.842C289.48 103.69 292.507 95.8288 297.974 89.7819C303.441 83.7349 310.958 79.9333 319.069 79.1139C327.179 78.2946 335.305 80.516 341.871 85.3474C348.437 90.1788 352.975 97.276 354.605 105.263H421.053V13.1579H315.789V0H434.211V118.421H354.605ZM1091.45 328.947C1089.82 336.935 1085.28 344.032 1078.71 348.863C1072.15 353.695 1064.02 355.916 1055.91 355.097C1047.8 354.277 1040.28 350.476 1034.82 344.429C1029.35 338.382 1026.32 330.52 1026.32 322.368C1026.32 314.217 1029.35 306.355 1034.82 300.308C1040.28 294.261 1047.8 290.46 1055.91 289.64C1064.02 288.821 1072.15 291.042 1078.71 295.874C1085.28 300.705 1089.82 307.802 1091.45 315.789H1263.16V0H1592.11V13.1579H1276.32V328.947H1091.45ZM775.658 13.1579C774.794 17.3913 773.105 21.4131 770.686 24.9936C768.268 28.5741 765.168 31.6433 761.564 34.0259C757.96 36.4084 753.921 38.0577 749.679 38.8796C745.438 39.7014 741.076 39.6798 736.842 38.8158C732.609 37.9518 728.587 36.2625 725.006 33.8443C721.426 31.426 718.357 28.3262 715.974 24.7218C711.162 17.4424 709.439 8.54974 711.184 0L724.803 0C723.756 2.9761 723.438 6.15982 723.875 9.28427C724.312 12.4087 725.492 15.3829 727.315 17.9574C729.139 20.5319 731.553 22.6318 734.355 24.081C737.157 25.5302 740.266 26.2864 743.421 26.2864C746.576 26.2864 749.685 25.5302 752.487 24.081C755.29 22.6318 757.704 20.5319 759.527 17.9574C761.351 15.3829 762.53 12.4087 762.968 9.28427C763.405 6.15982 763.086 2.9761 762.039 0L1171.05 0V223.684H1052.63V144.079C1044.64 142.449 1037.55 137.911 1032.72 131.345C1027.88 124.779 1025.66 116.653 1026.48 108.543C1027.3 100.432 1031.1 92.9146 1037.15 87.4478C1043.2 81.9809 1051.06 78.9541 1059.21 78.9541C1067.36 78.9541 1075.22 81.9809 1081.27 87.4478C1087.32 92.9146 1091.12 100.432 1091.94 108.543C1092.76 116.653 1090.54 124.779 1085.71 131.345C1080.87 137.911 1073.78 142.449 1065.79 144.079V210.526H1157.89V13.1579H775.658ZM775.658 644.737C774.028 652.724 769.49 659.821 762.924 664.653C756.358 669.484 748.232 671.705 740.122 670.886C732.011 670.067 724.494 666.265 719.027 660.218C713.56 654.171 710.533 646.31 710.533 638.158C710.533 630.006 713.56 622.145 719.027 616.098C724.494 610.051 732.011 606.249 740.122 605.43C748.232 604.61 756.358 606.832 762.924 611.663C769.49 616.495 774.028 623.592 775.658 631.579H901.316L1111.84 421.053H1368.42V144.079C1360.43 142.449 1353.34 137.911 1348.51 131.345C1343.67 124.779 1341.45 116.653 1342.27 108.543C1343.09 100.432 1346.89 92.9146 1352.94 87.4478C1358.99 81.9809 1366.85 78.9541 1375 78.9541C1383.15 78.9541 1391.01 81.9809 1397.06 87.4478C1403.11 92.9146 1406.91 100.432 1407.73 108.543C1408.55 116.653 1406.33 124.779 1401.49 131.345C1396.66 137.911 1389.57 142.449 1381.58 144.079V434.211H1117.3L906.776 644.737H775.658ZM960.526 1237.5C968.513 1239.13 975.611 1243.67 980.442 1250.23C985.273 1256.8 987.495 1264.93 986.676 1273.04C985.856 1281.15 982.055 1288.66 976.008 1294.13C969.961 1299.6 962.099 1302.62 953.947 1302.62C945.796 1302.62 937.934 1299.6 931.887 1294.13C925.84 1288.66 922.039 1281.15 921.219 1273.04C920.4 1264.93 922.621 1256.8 927.453 1250.23C932.284 1243.67 939.381 1239.13 947.368 1237.5V734.145L1155.2 526.316H1473.68V144.079C1465.7 142.449 1458.6 137.911 1453.77 131.345C1448.94 124.779 1446.72 116.653 1447.54 108.543C1448.35 100.432 1452.16 92.9146 1458.2 87.4478C1464.25 81.9809 1472.11 78.9541 1480.26 78.9541C1488.42 78.9541 1496.28 81.9809 1502.32 87.4478C1508.37 92.9146 1512.17 100.432 1512.99 108.543C1513.81 116.653 1511.59 124.779 1506.76 131.345C1501.93 137.911 1494.83 142.449 1486.84 144.079V539.474H1160.59L960.526 739.539V1237.5ZM1065.79 1448.03C1073.78 1449.66 1080.87 1454.19 1085.71 1460.76C1090.54 1467.33 1092.76 1475.45 1091.94 1483.56C1091.12 1491.67 1087.32 1499.19 1081.27 1504.66C1075.22 1510.12 1067.36 1513.15 1059.21 1513.15C1051.06 1513.15 1043.2 1510.12 1037.15 1504.66C1031.1 1499.19 1027.3 1491.67 1026.48 1483.56C1025.66 1475.45 1027.88 1467.33 1032.72 1460.76C1037.55 1454.19 1044.64 1449.66 1052.63 1448.03V793.355L1214.41 631.579H1974.34C1975.63 625.257 1978.75 619.454 1983.31 614.892C1987.88 610.33 1993.68 607.21 2000 605.921V619.539C1996.14 620.896 1992.81 623.415 1990.44 626.75C1988.08 630.085 1986.81 634.071 1986.81 638.158C1986.81 642.245 1988.08 646.231 1990.44 649.566C1992.81 652.901 1996.14 655.42 2000 656.776V670.395C1993.68 669.106 1987.88 665.986 1983.31 661.424C1978.75 656.862 1975.63 651.059 1974.34 644.737H1219.8L1065.79 798.75V1448.03ZM118.421 1026.97C126.408 1028.6 133.505 1033.14 138.337 1039.71C143.168 1046.27 145.39 1054.4 144.57 1062.51C143.751 1070.62 139.949 1078.14 133.902 1083.6C127.855 1089.07 119.994 1092.1 111.842 1092.1C103.69 1092.1 95.8288 1089.07 89.7819 1083.6C83.7349 1078.14 79.9333 1070.62 79.1139 1062.51C78.2946 1054.4 80.516 1046.27 85.3474 1039.71C90.1788 1033.14 97.276 1028.6 105.263 1026.97V1003.88L421.053 688.092V315.789H631.579V0H644.737V328.947H434.211V693.487L118.421 1009.28V1026.97ZM328.947 354.605V640.855L13.1579 956.645V1368.42H184.868C186.499 1360.43 191.037 1353.34 197.603 1348.51C204.168 1343.67 212.294 1341.45 220.405 1342.27C228.515 1343.09 236.033 1346.89 241.5 1352.94C246.966 1358.99 249.993 1366.85 249.993 1375C249.993 1383.15 246.966 1391.01 241.5 1397.06C236.033 1403.11 228.515 1406.91 220.405 1407.73C212.294 1408.55 204.168 1406.33 197.603 1401.49C191.037 1396.66 186.499 1389.57 184.868 1381.58H0V951.25L315.789 635.461V354.605C307.802 352.975 300.705 348.437 295.874 341.871C291.042 335.305 288.821 327.179 289.64 319.069C290.46 310.958 294.261 303.441 300.308 297.974C306.355 292.507 314.217 289.48 322.368 289.48C330.52 289.48 338.382 292.507 344.429 297.974C350.476 303.441 354.277 310.958 355.097 319.069C355.916 327.179 353.695 335.305 348.863 341.871C344.032 348.437 336.935 352.975 328.947 354.605ZM223.684 459.868V588.224L0 811.908V793.355L210.526 582.829V459.868C202.539 458.238 195.442 453.7 190.611 447.134C185.779 440.568 183.558 432.443 184.377 424.332C185.196 416.222 188.998 408.704 195.045 403.237C201.092 397.77 208.953 394.744 217.105 394.744C225.257 394.744 233.119 397.77 239.165 403.237C245.212 408.704 249.014 416.222 249.833 424.332C250.653 432.443 248.431 440.568 243.6 447.134C238.769 453.7 231.671 458.238 223.684 459.868ZM79.6053 210.526C81.2356 202.539 85.7736 195.442 92.3394 190.611C98.9052 185.779 107.031 183.558 115.142 184.377C123.252 185.196 130.77 188.998 136.236 195.045C141.703 201.092 144.73 208.953 144.73 217.105C144.73 225.257 141.703 233.119 136.236 239.165C130.77 245.212 123.252 249.014 115.142 249.833C107.031 250.653 98.9052 248.431 92.3394 243.6C85.7736 238.769 81.2356 231.671 79.6053 223.684H61.9079L0 285.592V267.105L56.5132 210.526H79.6053ZM1828.29 328.947C1826.66 336.935 1822.12 344.032 1815.56 348.863C1808.99 353.695 1800.86 355.916 1792.75 355.097C1784.64 354.277 1777.13 350.476 1771.66 344.429C1766.19 338.382 1763.16 330.52 1763.16 322.368C1763.16 314.217 1766.19 306.355 1771.66 300.308C1777.13 294.261 1784.64 290.46 1792.75 289.64C1800.86 288.821 1808.99 291.042 1815.56 295.874C1822.12 300.705 1826.66 307.802 1828.29 315.789H1951.25L2000 267.039V285.592L1956.64 328.947H1828.29ZM1723.03 1381.58C1721.4 1389.57 1716.86 1396.66 1710.29 1401.49C1703.73 1406.33 1695.6 1408.55 1687.49 1407.73C1679.38 1406.91 1671.86 1403.11 1666.4 1397.06C1660.93 1391.01 1657.9 1383.15 1657.9 1375C1657.9 1366.85 1660.93 1358.99 1666.4 1352.94C1671.86 1346.89 1679.38 1343.09 1687.49 1342.27C1695.6 1341.45 1703.73 1343.67 1710.29 1348.51C1716.86 1353.34 1721.4 1360.43 1723.03 1368.42H1894.74V898.618L2000 793.355V811.908L1907.89 904.013V1381.58H1723.03ZM354.605 1592.11C352.975 1600.09 348.437 1607.19 341.871 1612.02C335.305 1616.85 327.179 1619.07 319.069 1618.25C310.958 1617.44 303.441 1613.63 297.974 1607.59C292.507 1601.54 289.48 1593.68 289.48 1585.53C289.48 1577.37 292.507 1569.51 297.974 1563.47C303.441 1557.42 310.958 1553.62 319.069 1552.8C327.179 1551.98 335.305 1554.2 341.871 1559.03C348.437 1563.86 352.975 1570.96 354.605 1578.95H421.053V1430.33L267.039 1276.32H144.079C142.449 1284.3 137.911 1291.4 131.345 1296.23C124.779 1301.06 116.653 1303.28 108.543 1302.47C100.432 1301.65 92.9146 1297.84 87.4478 1291.8C81.9809 1285.75 78.9541 1277.89 78.9541 1269.74C78.9541 1261.59 81.9809 1253.72 87.4478 1247.68C92.9146 1241.63 100.432 1237.83 108.543 1237.01C116.653 1236.19 124.779 1238.41 131.345 1243.24C137.911 1248.07 142.449 1255.17 144.079 1263.16H272.434L434.211 1424.93V1592.11H354.605ZM1342.76 1684.21C1344.39 1676.22 1348.93 1669.13 1355.5 1664.29C1362.06 1659.46 1370.19 1657.24 1378.3 1658.06C1386.41 1658.88 1393.93 1662.68 1399.39 1668.73C1404.86 1674.78 1407.89 1682.64 1407.89 1690.79C1407.89 1698.94 1404.86 1706.8 1399.39 1712.85C1393.93 1718.9 1386.41 1722.7 1378.3 1723.52C1370.19 1724.34 1362.06 1722.12 1355.5 1717.28C1348.93 1712.45 1344.39 1705.36 1342.76 1697.37H631.579V1325L372.368 1065.79H249.342C247.712 1073.78 243.174 1080.87 236.608 1085.71C230.042 1090.54 221.916 1092.76 213.806 1091.94C205.695 1091.12 198.178 1087.32 192.711 1081.27C187.244 1075.22 184.217 1067.36 184.217 1059.21C184.217 1051.06 187.244 1043.2 192.711 1037.15C198.178 1031.1 205.695 1027.3 213.806 1026.48C221.916 1025.66 230.042 1027.88 236.608 1032.72C243.174 1037.55 247.712 1044.64 249.342 1052.63H377.632L644.737 1319.74V1684.21H1342.76ZM354.605 1697.37C352.975 1705.36 348.437 1712.45 341.871 1717.28C335.305 1722.12 327.179 1724.34 319.069 1723.52C310.958 1722.7 303.441 1718.9 297.974 1712.85C292.507 1706.8 289.48 1698.94 289.48 1690.79C289.48 1682.64 292.507 1674.78 297.974 1668.73C303.441 1662.68 310.958 1658.88 319.069 1658.06C327.179 1657.24 335.305 1659.46 341.871 1664.29C348.437 1669.13 352.975 1676.22 354.605 1684.21H526.316V1377.7L319.671 1171.05H144.079C142.449 1179.04 137.911 1186.14 131.345 1190.97C124.779 1195.8 116.653 1198.02 108.543 1197.2C100.432 1196.38 92.9146 1192.58 87.4478 1186.53C81.9809 1180.49 78.9541 1172.63 78.9541 1164.47C78.9541 1156.32 81.9809 1148.46 87.4478 1142.41C92.9146 1136.37 100.432 1132.56 108.543 1131.75C116.653 1130.93 124.779 1133.15 131.345 1137.98C137.911 1142.81 142.449 1149.91 144.079 1157.89H325.066L539.474 1372.3V1697.37H354.605ZM223.684 261.842V272.434L61.9079 434.211H0V421.053H56.5132L210.526 267.039V0H223.684V261.842ZM13.1579 1974.34C19.4796 1975.63 25.2825 1978.75 29.8446 1983.31C34.4067 1987.88 37.5265 1993.68 38.8158 2000H25.1974C24.3345 1997.55 22.9981 1995.3 21.2644 1993.37C19.5308 1991.44 17.434 1989.88 15.0939 1988.76C12.7538 1987.64 10.2162 1986.99 7.62631 1986.86C5.03641 1986.72 2.44492 1987.1 0 1987.96L0 1684.21H118.421V2000H105.263V1697.37H13.1579V1974.34ZM223.684 1585.53V2000H210.526V1592.11H0V1578.95H223.684V1585.53ZM111.842 118.421H0V105.263H105.263V0H118.421V118.421H111.842ZM1907.89 105.263H2000V118.421H1894.74V0H1907.89V105.263ZM1697.37 1901.32V2000H1684.21V1907.89H1592.11V2000H1578.95V1894.74H1697.37V1901.32ZM0 605.921C4.77708 604.97 9.70536 605.088 14.4317 606.265C19.158 607.443 23.5654 609.651 27.338 612.732C31.1106 615.813 34.155 619.69 36.2531 624.086C38.3512 628.482 39.451 633.287 39.4737 638.158C39.4747 643.036 38.3906 647.854 36.3 652.262C34.2093 656.669 31.1645 660.557 27.386 663.643C23.6075 666.728 19.19 668.935 14.4534 670.103C9.71686 671.271 4.77984 671.37 0 670.395L0 656.776C2.9761 657.823 6.15982 658.141 9.28427 657.704C12.4087 657.267 15.3829 656.087 17.9574 654.264C20.5319 652.44 22.6318 650.026 24.081 647.224C25.5302 644.422 26.2864 641.313 26.2864 638.158C26.2864 635.003 25.5302 631.894 24.081 629.092C22.6318 626.289 20.5319 623.875 17.9574 622.052C15.3829 620.228 12.4087 619.049 9.28427 618.611C6.15982 618.174 2.9761 618.493 0 619.539L0 605.921ZM526.316 1789.47H539.474V2000H526.316V1789.47ZM775.658 2000H762.039C760.683 1996.14 758.164 1992.81 754.829 1990.44C751.494 1988.08 747.508 1986.81 743.421 1986.81C739.334 1986.81 735.348 1988.08 732.013 1990.44C728.678 1992.81 726.159 1996.14 724.803 2000H711.184C712.694 1992.56 716.729 1985.88 722.604 1981.08C728.479 1976.27 735.833 1973.65 743.421 1973.65C751.009 1973.65 758.364 1976.27 764.239 1981.08C770.114 1985.88 774.148 1992.56 775.658 2000ZM38.8158 0C39.8707 5.32361 39.5974 10.8251 38.02 16.018C36.4427 21.2108 33.61 25.9349 29.7725 29.7725C25.9349 33.61 21.2108 36.4427 16.018 38.02C10.8251 39.5974 5.32361 39.8707 0 38.8158L0 25.1974C3.51459 26.4434 7.31026 26.6682 10.9474 25.8459C14.5845 25.0236 17.9143 23.1878 20.551 20.551C23.1878 17.9143 25.0236 14.5845 25.8459 10.9474C26.6682 7.31026 26.4434 3.51459 25.1974 0L38.8158 0ZM1974.34 0H1987.96C1987.1 2.44492 1986.72 5.03641 1986.86 7.62631C1986.99 10.2162 1987.64 12.7538 1988.76 15.0939C1989.88 17.434 1991.44 19.5308 1993.37 21.2644C1995.3 22.9981 1997.55 24.3345 2000 25.1974V38.8158C1995.77 37.9526 1991.74 36.2638 1988.16 33.8458C1984.58 31.4277 1981.51 28.3279 1979.13 24.7233C1976.75 21.1187 1975.1 17.08 1974.28 12.8379C1973.46 8.59585 1973.48 4.23347 1974.34 0V0ZM2000 1974.34V1987.96C1997.22 1988.94 1994.7 1990.53 1992.62 1992.62C1990.53 1994.7 1988.94 1997.22 1987.96 2000H1974.34C1975.63 1993.68 1978.75 1987.88 1983.31 1983.31C1987.88 1978.75 1993.68 1975.63 2000 1974.34ZM638.158 657.895C640.75 657.895 643.316 657.384 645.711 656.392C648.105 655.401 650.281 653.947 652.114 652.114C653.947 650.281 655.401 648.105 656.392 645.711C657.384 643.316 657.895 640.75 657.895 638.158C657.895 635.566 657.384 633 656.392 630.605C655.401 628.21 653.947 626.035 652.114 624.202C650.281 622.369 648.105 620.915 645.711 619.923C643.316 618.932 640.75 618.421 638.158 618.421C632.923 618.421 627.903 620.5 624.202 624.202C620.5 627.903 618.421 632.923 618.421 638.158C618.421 643.392 620.5 648.413 624.202 652.114C627.903 655.815 632.923 657.895 638.158 657.895ZM638.158 552.632C643.392 552.632 648.413 550.552 652.114 546.851C655.815 543.149 657.895 538.129 657.895 532.895C657.895 527.66 655.815 522.64 652.114 518.939C648.413 515.237 643.392 513.158 638.158 513.158C632.923 513.158 627.903 515.237 624.202 518.939C620.5 522.64 618.421 527.66 618.421 532.895C618.421 538.129 620.5 543.149 624.202 546.851C627.903 550.552 632.923 552.632 638.158 552.632ZM743.421 657.895C746.013 657.895 748.579 657.384 750.974 656.392C753.369 655.401 755.544 653.947 757.377 652.114C759.21 650.281 760.664 648.105 761.656 645.711C762.647 643.316 763.158 640.75 763.158 638.158C763.158 635.566 762.647 633 761.656 630.605C760.664 628.21 759.21 626.035 757.377 624.202C755.544 622.369 753.369 620.915 750.974 619.923C748.579 618.932 746.013 618.421 743.421 618.421C738.187 618.421 733.166 620.5 729.465 624.202C725.764 627.903 723.684 632.923 723.684 638.158C723.684 643.392 725.764 648.413 729.465 652.114C733.166 655.815 738.187 657.895 743.421 657.895ZM848.684 763.158C853.919 763.158 858.939 761.078 862.64 757.377C866.342 753.676 868.421 748.656 868.421 743.421C868.421 738.187 866.342 733.166 862.64 729.465C858.939 725.764 853.919 723.684 848.684 723.684C843.45 723.684 838.43 725.764 834.728 729.465C831.027 733.166 828.947 738.187 828.947 743.421C828.947 748.656 831.027 753.676 834.728 757.377C838.43 761.078 843.45 763.158 848.684 763.158ZM848.684 868.421C853.919 868.421 858.939 866.342 862.64 862.64C866.342 858.939 868.421 853.919 868.421 848.684C868.421 843.45 866.342 838.43 862.64 834.728C858.939 831.027 853.919 828.947 848.684 828.947C843.45 828.947 838.43 831.027 834.728 834.728C831.027 838.43 828.947 843.45 828.947 848.684C828.947 853.919 831.027 858.939 834.728 862.64C838.43 866.342 843.45 868.421 848.684 868.421ZM532.895 1078.95C538.129 1078.95 543.149 1076.87 546.851 1073.17C550.552 1069.47 552.632 1064.45 552.632 1059.21C552.632 1053.98 550.552 1048.96 546.851 1045.25C543.149 1041.55 538.129 1039.47 532.895 1039.47C527.66 1039.47 522.64 1041.55 518.939 1045.25C515.237 1048.96 513.158 1053.98 513.158 1059.21C513.158 1064.45 515.237 1069.47 518.939 1073.17C522.64 1076.87 527.66 1078.95 532.895 1078.95ZM638.158 1184.21C643.392 1184.21 648.413 1182.13 652.114 1178.43C655.815 1174.73 657.895 1169.71 657.895 1164.47C657.895 1159.24 655.815 1154.22 652.114 1150.52C648.413 1146.82 643.392 1144.74 638.158 1144.74C632.923 1144.74 627.903 1146.82 624.202 1150.52C620.5 1154.22 618.421 1159.24 618.421 1164.47C618.421 1169.71 620.5 1174.73 624.202 1178.43C627.903 1182.13 632.923 1184.21 638.158 1184.21ZM848.684 1500C853.919 1500 858.939 1497.92 862.64 1494.22C866.342 1490.52 868.421 1485.5 868.421 1480.26C868.421 1475.03 866.342 1470.01 862.64 1466.31C858.939 1462.61 853.919 1460.53 848.684 1460.53C843.45 1460.53 838.43 1462.61 834.728 1466.31C831.027 1470.01 828.947 1475.03 828.947 1480.26C828.947 1485.5 831.027 1490.52 834.728 1494.22C838.43 1497.92 843.45 1500 848.684 1500ZM743.421 1605.26C748.656 1605.26 753.676 1603.18 757.377 1599.48C761.078 1595.78 763.158 1590.76 763.158 1585.53C763.158 1580.29 761.078 1575.27 757.377 1571.57C753.676 1567.87 748.656 1565.79 743.421 1565.79C738.187 1565.79 733.166 1567.87 729.465 1571.57C725.764 1575.27 723.684 1580.29 723.684 1585.53C723.684 1590.76 725.764 1595.78 729.465 1599.48C733.166 1603.18 738.187 1605.26 743.421 1605.26ZM953.947 1500C959.182 1500 964.202 1497.92 967.903 1494.22C971.605 1490.52 973.684 1485.5 973.684 1480.26C973.684 1475.03 971.605 1470.01 967.903 1466.31C964.202 1462.61 959.182 1460.53 953.947 1460.53C948.713 1460.53 943.693 1462.61 939.991 1466.31C936.29 1470.01 934.211 1475.03 934.211 1480.26C934.211 1485.5 936.29 1490.52 939.991 1494.22C943.693 1497.92 948.713 1500 953.947 1500ZM953.947 1289.47C959.182 1289.47 964.202 1287.39 967.903 1283.69C971.605 1279.99 973.684 1274.97 973.684 1269.74C973.684 1264.5 971.605 1259.48 967.903 1255.78C964.202 1252.08 959.182 1250 953.947 1250C948.713 1250 943.693 1252.08 939.991 1255.78C936.29 1259.48 934.211 1264.5 934.211 1269.74C934.211 1274.97 936.29 1279.99 939.991 1283.69C943.693 1287.39 948.713 1289.47 953.947 1289.47ZM1059.21 1500C1064.45 1500 1069.47 1497.92 1073.17 1494.22C1076.87 1490.52 1078.95 1485.5 1078.95 1480.26C1078.95 1475.03 1076.87 1470.01 1073.17 1466.31C1069.47 1462.61 1064.45 1460.53 1059.21 1460.53C1053.98 1460.53 1048.96 1462.61 1045.25 1466.31C1041.55 1470.01 1039.47 1475.03 1039.47 1480.26C1039.47 1485.5 1041.55 1490.52 1045.25 1494.22C1048.96 1497.92 1053.98 1500 1059.21 1500ZM1269.74 1605.26C1274.97 1605.26 1279.99 1603.18 1283.69 1599.48C1287.39 1595.78 1289.47 1590.76 1289.47 1585.53C1289.47 1580.29 1287.39 1575.27 1283.69 1571.57C1279.99 1567.87 1274.97 1565.79 1269.74 1565.79C1264.5 1565.79 1259.48 1567.87 1255.78 1571.57C1252.08 1575.27 1250 1580.29 1250 1585.53C1250 1590.76 1252.08 1595.78 1255.78 1599.48C1259.48 1603.18 1264.5 1605.26 1269.74 1605.26ZM1269.74 1500C1274.97 1500 1279.99 1497.92 1283.69 1494.22C1287.39 1490.52 1289.47 1485.5 1289.47 1480.26C1289.47 1475.03 1287.39 1470.01 1283.69 1466.31C1279.99 1462.61 1274.97 1460.53 1269.74 1460.53C1264.5 1460.53 1259.48 1462.61 1255.78 1466.31C1252.08 1470.01 1250 1475.03 1250 1480.26C1250 1485.5 1252.08 1490.52 1255.78 1494.22C1259.48 1497.92 1264.5 1500 1269.74 1500ZM1164.47 1078.95C1169.71 1078.95 1174.73 1076.87 1178.43 1073.17C1182.13 1069.47 1184.21 1064.45 1184.21 1059.21C1184.21 1053.98 1182.13 1048.96 1178.43 1045.25C1174.73 1041.55 1169.71 1039.47 1164.47 1039.47C1159.24 1039.47 1154.22 1041.55 1150.52 1045.25C1146.82 1048.96 1144.74 1053.98 1144.74 1059.21C1144.74 1064.45 1146.82 1069.47 1150.52 1073.17C1154.22 1076.87 1159.24 1078.95 1164.47 1078.95ZM1269.74 1078.95C1274.97 1078.95 1279.99 1076.87 1283.69 1073.17C1287.39 1069.47 1289.47 1064.45 1289.47 1059.21C1289.47 1053.98 1287.39 1048.96 1283.69 1045.25C1279.99 1041.55 1274.97 1039.47 1269.74 1039.47C1264.5 1039.47 1259.48 1041.55 1255.78 1045.25C1252.08 1048.96 1250 1053.98 1250 1059.21C1250 1064.45 1252.08 1069.47 1255.78 1073.17C1259.48 1076.87 1264.5 1078.95 1269.74 1078.95ZM1375 1710.53C1380.23 1710.53 1385.25 1708.45 1388.96 1704.75C1392.66 1701.04 1394.74 1696.02 1394.74 1690.79C1394.74 1685.55 1392.66 1680.53 1388.96 1676.83C1385.25 1673.13 1380.23 1671.05 1375 1671.05C1369.77 1671.05 1364.75 1673.13 1361.04 1676.83C1357.34 1680.53 1355.26 1685.55 1355.26 1690.79C1355.26 1696.02 1357.34 1701.04 1361.04 1704.75C1364.75 1708.45 1369.77 1710.53 1375 1710.53ZM1375 1815.79C1380.23 1815.79 1385.25 1813.71 1388.96 1810.01C1392.66 1806.31 1394.74 1801.29 1394.74 1796.05C1394.74 1790.82 1392.66 1785.8 1388.96 1782.1C1385.25 1778.4 1380.23 1776.32 1375 1776.32C1369.77 1776.32 1364.75 1778.4 1361.04 1782.1C1357.34 1785.8 1355.26 1790.82 1355.26 1796.05C1355.26 1801.29 1357.34 1806.31 1361.04 1810.01C1364.75 1813.71 1369.77 1815.79 1375 1815.79ZM1480.26 1921.05C1485.5 1921.05 1490.52 1918.97 1494.22 1915.27C1497.92 1911.57 1500 1906.55 1500 1901.32C1500 1896.08 1497.92 1891.06 1494.22 1887.36C1490.52 1883.66 1485.5 1881.58 1480.26 1881.58C1475.03 1881.58 1470.01 1883.66 1466.31 1887.36C1462.61 1891.06 1460.53 1896.08 1460.53 1901.32C1460.53 1906.55 1462.61 1911.57 1466.31 1915.27C1470.01 1918.97 1475.03 1921.05 1480.26 1921.05ZM1585.53 973.684C1590.76 973.684 1595.78 971.605 1599.48 967.903C1603.18 964.202 1605.26 959.182 1605.26 953.947C1605.26 948.713 1603.18 943.693 1599.48 939.991C1595.78 936.29 1590.76 934.211 1585.53 934.211C1580.29 934.211 1575.27 936.29 1571.57 939.991C1567.87 943.693 1565.79 948.713 1565.79 953.947C1565.79 959.182 1567.87 964.202 1571.57 967.903C1575.27 971.605 1580.29 973.684 1585.53 973.684ZM1585.53 1184.21C1590.76 1184.21 1595.78 1182.13 1599.48 1178.43C1603.18 1174.73 1605.26 1169.71 1605.26 1164.47C1605.26 1159.24 1603.18 1154.22 1599.48 1150.52C1595.78 1146.82 1590.76 1144.74 1585.53 1144.74C1580.29 1144.74 1575.27 1146.82 1571.57 1150.52C1567.87 1154.22 1565.79 1159.24 1565.79 1164.47C1565.79 1169.71 1567.87 1174.73 1571.57 1178.43C1575.27 1182.13 1580.29 1184.21 1585.53 1184.21ZM1690.79 973.684C1696.02 973.684 1701.04 971.605 1704.75 967.903C1708.45 964.202 1710.53 959.182 1710.53 953.947C1710.53 948.713 1708.45 943.693 1704.75 939.991C1701.04 936.29 1696.02 934.211 1690.79 934.211C1685.55 934.211 1680.53 936.29 1676.83 939.991C1673.13 943.693 1671.05 948.713 1671.05 953.947C1671.05 959.182 1673.13 964.202 1676.83 967.903C1680.53 971.605 1685.55 973.684 1690.79 973.684ZM1796.05 868.421C1801.29 868.421 1806.31 866.342 1810.01 862.64C1813.71 858.939 1815.79 853.919 1815.79 848.684C1815.79 843.45 1813.71 838.43 1810.01 834.728C1806.31 831.027 1801.29 828.947 1796.05 828.947C1790.82 828.947 1785.8 831.027 1782.1 834.728C1778.4 838.43 1776.32 843.45 1776.32 848.684C1776.32 853.919 1778.4 858.939 1782.1 862.64C1785.8 866.342 1790.82 868.421 1796.05 868.421ZM1164.47 868.421C1169.71 868.421 1174.73 866.342 1178.43 862.64C1182.13 858.939 1184.21 853.919 1184.21 848.684C1184.21 843.45 1182.13 838.43 1178.43 834.728C1174.73 831.027 1169.71 828.947 1164.47 828.947C1159.24 828.947 1154.22 831.027 1150.52 834.728C1146.82 838.43 1144.74 843.45 1144.74 848.684C1144.74 853.919 1146.82 858.939 1150.52 862.64C1154.22 866.342 1159.24 868.421 1164.47 868.421ZM1164.47 973.684C1169.71 973.684 1174.73 971.605 1178.43 967.903C1182.13 964.202 1184.21 959.182 1184.21 953.947C1184.21 948.713 1182.13 943.693 1178.43 939.991C1174.73 936.29 1169.71 934.211 1164.47 934.211C1159.24 934.211 1154.22 936.29 1150.52 939.991C1146.82 943.693 1144.74 948.713 1144.74 953.947C1144.74 959.182 1146.82 964.202 1150.52 967.903C1154.22 971.605 1159.24 973.684 1164.47 973.684ZM1269.74 763.158C1274.97 763.158 1279.99 761.078 1283.69 757.377C1287.39 753.676 1289.47 748.656 1289.47 743.421C1289.47 738.187 1287.39 733.166 1283.69 729.465C1279.99 725.764 1274.97 723.684 1269.74 723.684C1264.5 723.684 1259.48 725.764 1255.78 729.465C1252.08 733.166 1250 738.187 1250 743.421C1250 748.656 1252.08 753.676 1255.78 757.377C1259.48 761.078 1264.5 763.158 1269.74 763.158ZM1901.32 763.158C1906.55 763.158 1911.57 761.078 1915.27 757.377C1918.97 753.676 1921.05 748.656 1921.05 743.421C1921.05 738.187 1918.97 733.166 1915.27 729.465C1911.57 725.764 1906.55 723.684 1901.32 723.684C1896.08 723.684 1891.06 725.764 1887.36 729.465C1883.66 733.166 1881.58 738.187 1881.58 743.421C1881.58 748.656 1883.66 753.676 1887.36 757.377C1891.06 761.078 1896.08 763.158 1901.32 763.158ZM1796.05 342.105C1801.29 342.105 1806.31 340.026 1810.01 336.324C1813.71 332.623 1815.79 327.603 1815.79 322.368C1815.79 317.134 1813.71 312.114 1810.01 308.412C1806.31 304.711 1801.29 302.632 1796.05 302.632C1790.82 302.632 1785.8 304.711 1782.1 308.412C1778.4 312.114 1776.32 317.134 1776.32 322.368C1776.32 327.603 1778.4 332.623 1782.1 336.324C1785.8 340.026 1790.82 342.105 1796.05 342.105ZM1901.32 236.842C1906.55 236.842 1911.57 234.763 1915.27 231.061C1918.97 227.36 1921.05 222.34 1921.05 217.105C1921.05 211.871 1918.97 206.851 1915.27 203.149C1911.57 199.448 1906.55 197.368 1901.32 197.368C1896.08 197.368 1891.06 199.448 1887.36 203.149C1883.66 206.851 1881.58 211.871 1881.58 217.105C1881.58 222.34 1883.66 227.36 1887.36 231.061C1891.06 234.763 1896.08 236.842 1901.32 236.842ZM1690.79 236.842C1696.02 236.842 1701.04 234.763 1704.75 231.061C1708.45 227.36 1710.53 222.34 1710.53 217.105C1710.53 211.871 1708.45 206.851 1704.75 203.149C1701.04 199.448 1696.02 197.368 1690.79 197.368C1685.55 197.368 1680.53 199.448 1676.83 203.149C1673.13 206.851 1671.05 211.871 1671.05 217.105C1671.05 222.34 1673.13 227.36 1676.83 231.061C1680.53 234.763 1685.55 236.842 1690.79 236.842ZM1690.79 131.579C1696.02 131.579 1701.04 129.5 1704.75 125.798C1708.45 122.097 1710.53 117.077 1710.53 111.842C1710.53 106.608 1708.45 101.587 1704.75 97.886C1701.04 94.1847 1696.02 92.1053 1690.79 92.1053C1685.55 92.1053 1680.53 94.1847 1676.83 97.886C1673.13 101.587 1671.05 106.608 1671.05 111.842C1671.05 117.077 1673.13 122.097 1676.83 125.798C1680.53 129.5 1685.55 131.579 1690.79 131.579ZM1585.53 131.579C1590.76 131.579 1595.78 129.5 1599.48 125.798C1603.18 122.097 1605.26 117.077 1605.26 111.842C1605.26 106.608 1603.18 101.587 1599.48 97.886C1595.78 94.1847 1590.76 92.1053 1585.53 92.1053C1580.29 92.1053 1575.27 94.1847 1571.57 97.886C1567.87 101.587 1565.79 106.608 1565.79 111.842C1565.79 117.077 1567.87 122.097 1571.57 125.798C1575.27 129.5 1580.29 131.579 1585.53 131.579ZM1480.26 131.579C1485.5 131.579 1490.52 129.5 1494.22 125.798C1497.92 122.097 1500 117.077 1500 111.842C1500 106.608 1497.92 101.587 1494.22 97.886C1490.52 94.1847 1485.5 92.1053 1480.26 92.1053C1475.03 92.1053 1470.01 94.1847 1466.31 97.886C1462.61 101.587 1460.53 106.608 1460.53 111.842C1460.53 117.077 1462.61 122.097 1466.31 125.798C1470.01 129.5 1475.03 131.579 1480.26 131.579ZM1375 131.579C1380.23 131.579 1385.25 129.5 1388.96 125.798C1392.66 122.097 1394.74 117.077 1394.74 111.842C1394.74 106.608 1392.66 101.587 1388.96 97.886C1385.25 94.1847 1380.23 92.1053 1375 92.1053C1369.77 92.1053 1364.75 94.1847 1361.04 97.886C1357.34 101.587 1355.26 106.608 1355.26 111.842C1355.26 117.077 1357.34 122.097 1361.04 125.798C1364.75 129.5 1369.77 131.579 1375 131.579ZM322.368 236.842C327.603 236.842 332.623 234.763 336.324 231.061C340.026 227.36 342.105 222.34 342.105 217.105C342.105 211.871 340.026 206.851 336.324 203.149C332.623 199.448 327.603 197.368 322.368 197.368C317.134 197.368 312.114 199.448 308.412 203.149C304.711 206.851 302.632 211.871 302.632 217.105C302.632 222.34 304.711 227.36 308.412 231.061C312.114 234.763 317.134 236.842 322.368 236.842ZM111.842 236.842C117.077 236.842 122.097 234.763 125.798 231.061C129.5 227.36 131.579 222.34 131.579 217.105C131.579 211.871 129.5 206.851 125.798 203.149C122.097 199.448 117.077 197.368 111.842 197.368C106.608 197.368 101.587 199.448 97.886 203.149C94.1847 206.851 92.1053 211.871 92.1053 217.105C92.1053 222.34 94.1847 227.36 97.886 231.061C101.587 234.763 106.608 236.842 111.842 236.842ZM322.368 342.105C327.603 342.105 332.623 340.026 336.324 336.324C340.026 332.623 342.105 327.603 342.105 322.368C342.105 317.134 340.026 312.114 336.324 308.412C332.623 304.711 327.603 302.632 322.368 302.632C317.134 302.632 312.114 304.711 308.412 308.412C304.711 312.114 302.632 317.134 302.632 322.368C302.632 327.603 304.711 332.623 308.412 336.324C312.114 340.026 317.134 342.105 322.368 342.105ZM217.105 447.368C222.34 447.368 227.36 445.289 231.061 441.588C234.763 437.886 236.842 432.866 236.842 427.632C236.842 422.397 234.763 417.377 231.061 413.676C227.36 409.974 222.34 407.895 217.105 407.895C211.871 407.895 206.851 409.974 203.149 413.676C199.448 417.377 197.368 422.397 197.368 427.632C197.368 432.866 199.448 437.886 203.149 441.588C206.851 445.289 211.871 447.368 217.105 447.368ZM322.368 131.579C327.603 131.579 332.623 129.5 336.324 125.798C340.026 122.097 342.105 117.077 342.105 111.842C342.105 106.608 340.026 101.587 336.324 97.886C332.623 94.1847 327.603 92.1053 322.368 92.1053C317.134 92.1053 312.114 94.1847 308.412 97.886C304.711 101.587 302.632 106.608 302.632 111.842C302.632 117.077 304.711 122.097 308.412 125.798C312.114 129.5 317.134 131.579 322.368 131.579ZM322.368 1710.53C327.603 1710.53 332.623 1708.45 336.324 1704.75C340.026 1701.04 342.105 1696.02 342.105 1690.79C342.105 1685.55 340.026 1680.53 336.324 1676.83C332.623 1673.13 327.603 1671.05 322.368 1671.05C317.134 1671.05 312.114 1673.13 308.412 1676.83C304.711 1680.53 302.632 1685.55 302.632 1690.79C302.632 1696.02 304.711 1701.04 308.412 1704.75C312.114 1708.45 317.134 1710.53 322.368 1710.53ZM427.632 1921.05C432.866 1921.05 437.886 1918.97 441.588 1915.27C445.289 1911.57 447.368 1906.55 447.368 1901.32C447.368 1896.08 445.289 1891.06 441.588 1887.36C437.886 1883.66 432.866 1881.58 427.632 1881.58C422.397 1881.58 417.377 1883.66 413.676 1887.36C409.974 1891.06 407.895 1896.08 407.895 1901.32C407.895 1906.55 409.974 1911.57 413.676 1915.27C417.377 1918.97 422.397 1921.05 427.632 1921.05ZM322.368 1500C327.603 1500 332.623 1497.92 336.324 1494.22C340.026 1490.52 342.105 1485.5 342.105 1480.26C342.105 1475.03 340.026 1470.01 336.324 1466.31C332.623 1462.61 327.603 1460.53 322.368 1460.53C317.134 1460.53 312.114 1462.61 308.412 1466.31C304.711 1470.01 302.632 1475.03 302.632 1480.26C302.632 1485.5 304.711 1490.52 308.412 1494.22C312.114 1497.92 317.134 1500 322.368 1500ZM322.368 1605.26C327.603 1605.26 332.623 1603.18 336.324 1599.48C340.026 1595.78 342.105 1590.76 342.105 1585.53C342.105 1580.29 340.026 1575.27 336.324 1571.57C332.623 1567.87 327.603 1565.79 322.368 1565.79C317.134 1565.79 312.114 1567.87 308.412 1571.57C304.711 1575.27 302.632 1580.29 302.632 1585.53C302.632 1590.76 304.711 1595.78 308.412 1599.48C312.114 1603.18 317.134 1605.26 322.368 1605.26ZM217.105 1394.74C222.34 1394.74 227.36 1392.66 231.061 1388.96C234.763 1385.25 236.842 1380.23 236.842 1375C236.842 1369.77 234.763 1364.75 231.061 1361.04C227.36 1357.34 222.34 1355.26 217.105 1355.26C211.871 1355.26 206.851 1357.34 203.149 1361.04C199.448 1364.75 197.368 1369.77 197.368 1375C197.368 1380.23 199.448 1385.25 203.149 1388.96C206.851 1392.66 211.871 1394.74 217.105 1394.74ZM743.421 236.842C748.656 236.842 753.676 234.763 757.377 231.061C761.078 227.36 763.158 222.34 763.158 217.105C763.158 211.871 761.078 206.851 757.377 203.149C753.676 199.448 748.656 197.368 743.421 197.368C738.187 197.368 733.166 199.448 729.465 203.149C725.764 206.851 723.684 211.871 723.684 217.105C723.684 222.34 725.764 227.36 729.465 231.061C733.166 234.763 738.187 236.842 743.421 236.842ZM848.684 236.842C853.919 236.842 858.939 234.763 862.64 231.061C866.342 227.36 868.421 222.34 868.421 217.105C868.421 211.871 866.342 206.851 862.64 203.149C858.939 199.448 853.919 197.368 848.684 197.368C843.45 197.368 838.43 199.448 834.728 203.149C831.027 206.851 828.947 211.871 828.947 217.105C828.947 222.34 831.027 227.36 834.728 231.061C838.43 234.763 843.45 236.842 848.684 236.842ZM743.421 131.579C748.656 131.579 753.676 129.5 757.377 125.798C761.078 122.097 763.158 117.077 763.158 111.842C763.158 106.608 761.078 101.587 757.377 97.886C753.676 94.1847 748.656 92.1053 743.421 92.1053C738.187 92.1053 733.166 94.1847 729.465 97.886C725.764 101.587 723.684 106.608 723.684 111.842C723.684 117.077 725.764 122.097 729.465 125.798C733.166 129.5 738.187 131.579 743.421 131.579ZM953.947 447.368C959.182 447.368 964.202 445.289 967.903 441.588C971.605 437.886 973.684 432.866 973.684 427.632C973.684 422.397 971.605 417.377 967.903 413.676C964.202 409.974 959.182 407.895 953.947 407.895C948.713 407.895 943.693 409.974 939.991 413.676C936.29 417.377 934.211 422.397 934.211 427.632C934.211 432.866 936.29 437.886 939.991 441.588C943.693 445.289 948.713 447.368 953.947 447.368ZM1059.21 342.105C1064.45 342.105 1069.47 340.026 1073.17 336.324C1076.87 332.623 1078.95 327.603 1078.95 322.368C1078.95 317.134 1076.87 312.114 1073.17 308.412C1069.47 304.711 1064.45 302.632 1059.21 302.632C1053.98 302.632 1048.96 304.711 1045.25 308.412C1041.55 312.114 1039.47 317.134 1039.47 322.368C1039.47 327.603 1041.55 332.623 1045.25 336.324C1048.96 340.026 1053.98 342.105 1059.21 342.105ZM1059.21 131.579C1064.45 131.579 1069.47 129.5 1073.17 125.798C1076.87 122.097 1078.95 117.077 1078.95 111.842C1078.95 106.608 1076.87 101.587 1073.17 97.886C1069.47 94.1847 1064.45 92.1053 1059.21 92.1053C1053.98 92.1053 1048.96 94.1847 1045.25 97.886C1041.55 101.587 1039.47 106.608 1039.47 111.842C1039.47 117.077 1041.55 122.097 1045.25 125.798C1048.96 129.5 1053.98 131.579 1059.21 131.579ZM1796.05 1289.47C1801.29 1289.47 1806.31 1287.39 1810.01 1283.69C1813.71 1279.99 1815.79 1274.97 1815.79 1269.74C1815.79 1264.5 1813.71 1259.48 1810.01 1255.78C1806.31 1252.08 1801.29 1250 1796.05 1250C1790.82 1250 1785.8 1252.08 1782.1 1255.78C1778.4 1259.48 1776.32 1264.5 1776.32 1269.74C1776.32 1274.97 1778.4 1279.99 1782.1 1283.69C1785.8 1287.39 1790.82 1289.47 1796.05 1289.47ZM1690.79 1394.74C1696.02 1394.74 1701.04 1392.66 1704.75 1388.96C1708.45 1385.25 1710.53 1380.23 1710.53 1375C1710.53 1369.77 1708.45 1364.75 1704.75 1361.04C1701.04 1357.34 1696.02 1355.26 1690.79 1355.26C1685.55 1355.26 1680.53 1357.34 1676.83 1361.04C1673.13 1364.75 1671.05 1369.77 1671.05 1375C1671.05 1380.23 1673.13 1385.25 1676.83 1388.96C1680.53 1392.66 1685.55 1394.74 1690.79 1394.74ZM1690.79 1500C1696.02 1500 1701.04 1497.92 1704.75 1494.22C1708.45 1490.52 1710.53 1485.5 1710.53 1480.26C1710.53 1475.03 1708.45 1470.01 1704.75 1466.31C1701.04 1462.61 1696.02 1460.53 1690.79 1460.53C1685.55 1460.53 1680.53 1462.61 1676.83 1466.31C1673.13 1470.01 1671.05 1475.03 1671.05 1480.26C1671.05 1485.5 1673.13 1490.52 1676.83 1494.22C1680.53 1497.92 1685.55 1500 1690.79 1500ZM1690.79 1605.26C1696.02 1605.26 1701.04 1603.18 1704.75 1599.48C1708.45 1595.78 1710.53 1590.76 1710.53 1585.53C1710.53 1580.29 1708.45 1575.27 1704.75 1571.57C1701.04 1567.87 1696.02 1565.79 1690.79 1565.79C1685.55 1565.79 1680.53 1567.87 1676.83 1571.57C1673.13 1575.27 1671.05 1580.29 1671.05 1585.53C1671.05 1590.76 1673.13 1595.78 1676.83 1599.48C1680.53 1603.18 1685.55 1605.26 1690.79 1605.26ZM111.842 1184.21C117.077 1184.21 122.097 1182.13 125.798 1178.43C129.5 1174.73 131.579 1169.71 131.579 1164.47C131.579 1159.24 129.5 1154.22 125.798 1150.52C122.097 1146.82 117.077 1144.74 111.842 1144.74C106.608 1144.74 101.587 1146.82 97.886 1150.52C94.1847 1154.22 92.1053 1159.24 92.1053 1164.47C92.1053 1169.71 94.1847 1174.73 97.886 1178.43C101.587 1182.13 106.608 1184.21 111.842 1184.21ZM111.842 1289.47C117.077 1289.47 122.097 1287.39 125.798 1283.69C129.5 1279.99 131.579 1274.97 131.579 1269.74C131.579 1264.5 129.5 1259.48 125.798 1255.78C122.097 1252.08 117.077 1250 111.842 1250C106.608 1250 101.587 1252.08 97.886 1255.78C94.1847 1259.48 92.1053 1264.5 92.1053 1269.74C92.1053 1274.97 94.1847 1279.99 97.886 1283.69C101.587 1287.39 106.608 1289.47 111.842 1289.47ZM111.842 1078.95C117.077 1078.95 122.097 1076.87 125.798 1073.17C129.5 1069.47 131.579 1064.45 131.579 1059.21C131.579 1053.98 129.5 1048.96 125.798 1045.25C122.097 1041.55 117.077 1039.47 111.842 1039.47C106.608 1039.47 101.587 1041.55 97.886 1045.25C94.1847 1048.96 92.1053 1053.98 92.1053 1059.21C92.1053 1064.45 94.1847 1069.47 97.886 1073.17C101.587 1076.87 106.608 1078.95 111.842 1078.95ZM217.105 1078.95C222.34 1078.95 227.36 1076.87 231.061 1073.17C234.763 1069.47 236.842 1064.45 236.842 1059.21C236.842 1053.98 234.763 1048.96 231.061 1045.25C227.36 1041.55 222.34 1039.47 217.105 1039.47C211.871 1039.47 206.851 1041.55 203.149 1045.25C199.448 1048.96 197.368 1053.98 197.368 1059.21C197.368 1064.45 199.448 1069.47 203.149 1073.17C206.851 1076.87 211.871 1078.95 217.105 1078.95ZM111.842 552.632C117.077 552.632 122.097 550.552 125.798 546.851C129.5 543.149 131.579 538.129 131.579 532.895C131.579 527.66 129.5 522.64 125.798 518.939C122.097 515.237 117.077 513.158 111.842 513.158C106.608 513.158 101.587 515.237 97.886 518.939C94.1847 522.64 92.1053 527.66 92.1053 532.895C92.1053 538.129 94.1847 543.149 97.886 546.851C101.587 550.552 106.608 552.632 111.842 552.632ZM322.368 973.684C327.603 973.684 332.623 971.605 336.324 967.903C340.026 964.202 342.105 959.182 342.105 953.947C342.105 948.713 340.026 943.693 336.324 939.991C332.623 936.29 327.603 934.211 322.368 934.211C317.134 934.211 312.114 936.29 308.412 939.991C304.711 943.693 302.632 948.713 302.632 953.947C302.632 959.182 304.711 964.202 308.412 967.903C312.114 971.605 317.134 973.684 322.368 973.684ZM427.632 868.421C432.866 868.421 437.886 866.342 441.588 862.64C445.289 858.939 447.368 853.919 447.368 848.684C447.368 843.45 445.289 838.43 441.588 834.728C437.886 831.027 432.866 828.947 427.632 828.947C422.397 828.947 417.377 831.027 413.676 834.728C409.974 838.43 407.895 843.45 407.895 848.684C407.895 853.919 409.974 858.939 413.676 862.64C417.377 866.342 422.397 868.421 427.632 868.421Z" fill="white" fill-opacity="0.5"/>
</g>
<defs>
<clipPath id="clip0">
<rect width="2000" height="2000" fill="white"/>
</clipPath>
</defs>
</svg>
